<?xml version="1.0" encoding="UTF-8" standalone="no"?>
<!-- Created with Inkscape (http://www.inkscape.org/) -->

<svg
   width="1600"
   height="1200"
   viewBox="0 0 423.33332 317.50001"
   version="1.1"
   id="svg5"
   xmlns="http://www.w3.org/2000/svg"
   xmlns:svg="http://www.w3.org/2000/svg">
  <defs
     id="defs2" />
  <g
     id="layer1">
    <g
       id="g2067"
       transform="matrix(0.91514719,0,0,0.91514719,18.324673,13.610038)">
      <path
         style="fill:none;stroke:#37474f;stroke-width:29.0701;stroke-linecap:round;stroke-linejoin:round;stroke-miterlimit:4;stroke-dasharray:none;stroke-opacity:1"
         d="m 71.743391,304.61081 c 0,0 0,-288.429919 0,-288.429919 57.685979,44.866873 115.376209,89.737049 144.217079,118.580449 28.84087,28.84339 28.84087,41.66226 28.84087,51.27664 0,9.61437 0,16.0238 -3.20484,22.4315 -3.20484,6.4077 -9.61426,12.81711 -16.02196,16.02189 -6.40771,3.20478 -12.81712,3.20478 -19.22674,0.002 -6.40962,-3.20292 -12.81903,-9.61233 -16.02574,-22.43163 -3.20671,-12.81931 -3.20671,-32.0476 25.63712,-64.09794 28.84384,-32.05034 86.52868,-76.916325 144.21413,-121.782779"
         id="path1704" />
      <path
         style="fill:none;stroke:#37474f;stroke-width:29.0701;stroke-linecap:round;stroke-linejoin:round;stroke-miterlimit:4;stroke-dasharray:none;stroke-opacity:1"
         d="M 360.17331,16.180891 V 304.61081"
         id="path1708" />
    </g>
  </g>
</svg>
